
<svg width="40" height="44" viewBox="0 0 40 44" fill="none" xmlns="http://www.w3.org/2000/svg">
<path fill-rule="evenodd" clip-rule="evenodd" d="M9.83246 33.3556C9.82005 24.4045 9.81384 19.9295 9.81384 19.9295C9.95808 17.91 10.8039 17.0399 12.3498 17.3191C13.3016 17.8025 13.7742 18.8845 13.7669 20.5633C14.1143 25.4868 14.2886 27.9483 14.2886 27.9483C14.6081 29.0092 15.4286 29.0217 16.7501 27.985C24.9556 18.9849 29.0575 14.4848 29.0575 14.4848C30.9937 13.2952 32.2267 14.4657 31.6311 16.2008C26.5588 22.5161 24.0229 25.674 24.0229 25.674C23.845 26.4857 24.2312 26.7085 25.1784 26.3456C31.5935 20.7009 34.801 17.8795 34.801 17.8795C36.7445 17.0104 37.8028 18.426 36.5913 20.2293C30.8722 25.8731 28.0132 28.6954 28.0132 28.6954C27.6269 29.6338 27.9878 30.0691 29.0953 30.0009C34.8134 25.9728 37.6725 23.9586 37.6725 23.9586C38.4403 23.8743 38.963 24.0119 39.2396 24.3691C39.7235 25.018 39.7359 25.6146 39.2763 26.1595C33.6326 30.6099 30.8102 32.8356 30.8102 32.8356C30.2839 33.7409 30.5326 34.1944 31.5563 34.1969C35.9824 31.8341 38.1957 30.6533 38.1957 30.6533C38.9878 30.4465 39.4727 30.6078 39.6495 31.1383C39.802 31.752 39.5285 32.3114 38.829 32.8166C29.7896 39.2011 24.1389 42.7385 21.8783 43.4277C17.4409 44.1913 13.9226 42.935 11.3236 39.6608C10.4886 37.8171 9.99127 35.7159 9.83191 33.3579L9.83246 33.3556Z" fill="#052962"/>
<path fill-rule="evenodd" clip-rule="evenodd" d="M0.509299 21.0479C3.33944 23.8667 5.96219 26.2786 8.37873 28.2835V21.6074C4.00228 19.1702 1.81471 17.9526 1.81471 17.9526C-0.0361364 17.8554 -0.471054 18.8874 0.509259 21.048L0.509299 21.0479Z" fill="#052962"/>
<path fill-rule="evenodd" clip-rule="evenodd" d="M12.08 15.8437C10.1899 15.7692 9.76685 16.5153 9.76685 16.5153C9.76685 16.5153 9.77046 12.1584 9.79476 3.92859C10.4917 1.60721 13.1652 2.17078 13.4128 4.15194C14.2333 11.6113 14.6428 15.3406 14.6428 15.3406C15.5041 15.8772 16.0398 15.7645 16.2502 15.0024C16.1489 5.95319 16.0977 1.42944 16.0977 1.42944C16.8024 -0.822186 19.492 -0.246178 20.0136 1.98885C20.0637 11.1886 20.0891 15.7882 20.0891 15.7882C20.5901 16.0291 21.075 15.9298 21.5429 15.4899C22.5376 8.30444 23.0345 4.71167 23.0345 4.71167C24.0773 2.81264 25.6878 3.82861 26.0554 5.30881C25.4339 12.6928 25.1232 16.3857 25.1232 16.3857C19.9267 21.9307 17.3281 24.7024 17.3281 24.7024C16.5247 25.6532 15.8898 25.0229 15.7988 24.5912C15.5501 20.389 15.1184 18.0459 15.1184 18.0459C14.6665 16.6882 13.5162 15.7555 12.0789 15.8449L12.08 15.8437Z" fill="#052962"/>
</svg>
